/* XPM */
static char * antidote3_xpm[] = {
"32 32 10 1",
" 	c #9BABB2",
".	c #625565",
"+	c #000000",
"@	c #8FD3FF",
"#	c #C7DCD0",
"$	c #4D9BE6",
"%	c #3E3546",
"&	c #FFFFFF",
"*	c #2E222F",
"=	c #494949",
"                ................",
"                ................",
"                ..........++@...",
"                .........+#+@...",
"                ........+#+@@...",
"                .......+#+$.$...",
"                ...++++#+$..$...",
"                .++%%%%+.$......",
"                +%%%%%%+........",
"               +%%%@@%%%+.......",
"              +%%%&@$%%%+.......",
"             +%%%&@$%%*+........",
"            +%%%@@$%%*+.........",
"           +%%%@@$%%*+..........",
"          +%%%@@$%%%+...........",
"         +%%%&@$%%*+............",
"........+%%%&@$%%*+             ",
".......+%%%&@$%%*+              ",
"......+%%%&@$%%%+               ",
".....+%%%@@$%%*+                ",
"....+%%%%%$%%*+.                ",
"....+%%%%%%%%+..                ",
".....++**%%*+...                ",
".......++**+....                ",
".........++.....                ",
"................                ",
"............=========           ",
".........===============        ",
"........=================       ",
".........===============        ",
"............=========           ",
"................                "};
