/* XPM */
static char * exit_closed_xpm[] = {
"64 64 7 1",
" 	c #7C868A",
".	c #9BABB2",
"+	c #C7DCD0",
"@	c #969696",
"#	c #DCDEDD",
"$	c #A6A6A6",
"%	c #ECECEC",
"                        ........  ........  ..................  ",
"                        ........  ........  ..................  ",
"  ++++++++++++++++++++++++++++++++++++++++++++++++++++++++++++  ",
"  ++++++++++++++++++++++++++++++++++++++++++++++++++++++++++++  ",
"  ++    ++++  ++++++++++++++++++++++++++++++++++++  ++++    ++..",
"  ++    ++++  ++++++++++++++++++++++++++++++++++++  ++++    ++..",
"  ++    ++++    ++++++++++++++++++++++++++++++++    ++++    ++..",
"  ++    ++++    ++++++++++++++++++++++++++++++++    ++++    ++..",
"  ++++++++++++++                                ++++++++++++++  ",
"  ++++++++++++++                                ++++++++++++++  ",
"..++++++++++++  @@@@@@@@@@@@@@####@@@@@@@@@@@@@@  ++++++++++++  ",
"..++++++++++++  @@@@@@@@@@@@@@####@@@@@@@@@@@@@@  ++++++++++++  ",
"..++    ++++++  @@$$$$$$$$$$$$##%%$$$$$$$$$$$$@@  ++++++    ++  ",
"..++    ++++++  @@$$$$$$$$$$$$##%%$$$$$$$$$$$$@@  ++++++    ++  ",
"  ++++  ++++  @@$$$$$$$$$$$$$$##%%$$$$$$$$$$$$$$@@  ++++  ++++  ",
"  ++++  ++++  @@$$$$$$$$$$$$$$##%%$$$$$$$$$$$$$$@@  ++++  ++++  ",
"  ++++++++++  @@$$$$$$$$$$$$$$%%##$$$$$$$$$$$$$$@@  ++++++++++  ",
"  ++++++++++  @@$$$$$$$$$$$$$$%%##$$$$$$$$$$$$$$@@  ++++++++++  ",
"  ++++++++++  @@$$$$$$$$$$$$$$%%##$$$$$$$$$$$$$$@@  ++++++++++..",
"  ++++++++++  @@$$$$$$$$$$$$$$%%##$$$$$$$$$$$$$$@@  ++++++++++..",
"..++++++++++  @@$$$$$$$$$$$$$$%%%%$$$$$$$$$$$$$$@@  ++++++++++..",
"..++++++++++  @@$$$$$$$$$$$$$$%%%%$$$$$$$$$$$$$$@@  ++++++++++..",
"  ++++++++++  @@$$$$$$$$$$$$$$##%%$$$$$$$$$$$$$$@@  ++++++++++..",
"  ++++++++++  @@$$$$$$$$$$$$$$##%%$$$$$$$$$$$$$$@@  ++++++++++..",
"  ++++++++++  @@$$$$$$$$$$$$##%%##%%$$$$$$$$$$$$@@  ++++++++++..",
"  ++++++++++  @@$$$$$$$$$$$$##%%##%%$$$$$$$$$$$$@@  ++++++++++..",
"  ++++++++++  @@$$$$$$$$$$$$##$$$$%%$$$$$$$$$$$$@@  ++++++++++..",
"  ++++++++++  @@$$$$$$$$$$$$##$$$$%%$$$$$$$$$$$$@@  ++++++++++..",
"  ++++++++++  ##%%##%%%%####%%$$$$%%##%%##%%%%%%##  ++++++++++..",
"  ++++++++++  ##%%##%%%%####%%$$$$%%##%%##%%%%%%##  ++++++++++..",
"  ++++++++++  @@$$$$$$$$$$$$%%$$$$##$$$$$$$$$$$$@@  ++++++++++..",
"  ++++++++++  @@$$$$$$$$$$$$%%$$$$##$$$$$$$$$$$$@@  ++++++++++..",
"..++++++++++  %%%%%%####%%####$$$$##%%%%##%%##%%##  ++++++++++..",
"..++++++++++  %%%%%%####%%####$$$$##%%%%##%%##%%##  ++++++++++..",
"..++++++++++  @@$$$$$$$$$$$$%%$$$$%%$$$$$$$$$$$$@@  ++++++++++..",
"..++++++++++  @@$$$$$$$$$$$$%%$$$$%%$$$$$$$$$$$$@@  ++++++++++..",
"  ++++++++++  @@$$$$$$$$$$$$%%%%##%%$$$$$$$$$$$$@@  ++++++++++  ",
"  ++++++++++  @@$$$$$$$$$$$$%%%%##%%$$$$$$$$$$$$@@  ++++++++++  ",
"  ++++++++++  @@$$$$$$$$$$$$$$##%%$$$$$$$$$$$$$$@@  ++++++++++  ",
"  ++++++++++  @@$$$$$$$$$$$$$$##%%$$$$$$$$$$$$$$@@  ++++++++++  ",
"  ++++++++++  @@$$$$$$$$$$$$$$####$$$$$$$$$$$$$$@@  ++++++++++  ",
"  ++++++++++  @@$$$$$$$$$$$$$$####$$$$$$$$$$$$$$@@  ++++++++++  ",
"..++++++++++  @@$$$$$$$$$$$$$$%%##$$$$$$$$$$$$$$@@  ++++++++++  ",
"..++++++++++  @@$$$$$$$$$$$$$$%%##$$$$$$$$$$$$$$@@  ++++++++++  ",
"  ++++++++++  @@$$$$$$$$$$$$$$##%%$$$$$$$$$$$$$$@@  ++++++++++  ",
"  ++++++++++  @@$$$$$$$$$$$$$$##%%$$$$$$$$$$$$$$@@  ++++++++++  ",
"..++++++++++  @@$$$$$$$$$$$$$$##%%$$$$$$$$$$$$$$@@  ++++++++++..",
"..++++++++++  @@$$$$$$$$$$$$$$##%%$$$$$$$$$$$$$$@@  ++++++++++..",
"  ++++  ++++  @@$$$$$$$$$$$$$$%%##$$$$$$$$$$$$$$@@  ++++  ++++..",
"  ++++  ++++  @@$$$$$$$$$$$$$$%%##$$$$$$$$$$$$$$@@  ++++  ++++..",
"..++    ++++  @@$$$$$$$$$$$$$$%%%%$$$$$$$$$$$$$$@@  ++++    ++..",
"..++    ++++  @@$$$$$$$$$$$$$$%%%%$$$$$$$$$$$$$$@@  ++++    ++..",
"  ++++++++++  @@$$$$$$$$$$$$$$%%%%$$$$$$$$$$$$$$@@  ++++++++++..",
"  ++++++++++  @@$$$$$$$$$$$$$$%%%%$$$$$$$$$$$$$$@@  ++++++++++..",
"..++++++++++  @@$$$$$$$$$$$$$$##%%$$$$$$$$$$$$$$@@  ++++++++++..",
"..++++++++++  @@$$$$$$$$$$$$$$##%%$$$$$$$$$$$$$$@@  ++++++++++..",
"  ++    ++++  @@$$$$$$$$$$$$$$##%%$$$$$$$$$$$$$$@@  ++++    ++  ",
"  ++    ++++  @@$$$$$$$$$$$$$$##%%$$$$$$$$$$$$$$@@  ++++    ++  ",
"  ++    ++++  @@$$$$$$$$$$$$$$%%##$$$$$$$$$$$$$$@@  ++++    ++  ",
"  ++    ++++  @@$$$$$$$$$$$$$$%%##$$$$$$$$$$$$$$@@  ++++    ++  ",
"  ++++++++++  @@$$$$$$$$$$$$$$%%%%$$$$$$$$$$$$$$@@  ++++++++++  ",
"  ++++++++++  @@$$$$$$$$$$$$$$%%%%$$$$$$$$$$$$$$@@  ++++++++++  ",
"              @@@@@@@@@@@@@@@@%%%%@@@@@@@@@@@@@@@@              ",
"              @@@@@@@@@@@@@@@@%%%%@@@@@@@@@@@@@@@@              "};
