/* XPM */
static char * exit_open_xpm[] = {
"64 64 9 1",
" 	c #7C868A",
".	c #9BABB2",
"+	c #C7DCD0",
"@	c #151515",
"#	c #1A1A1A",
"$	c #232323",
"%	c #383838",
"&	c #4D4D4D",
"*	c #6E6E6E",
"                        ........  ........  ..................  ",
"                        ........  ........  ..................  ",
"  ++++++++++++++++++++++++++++++++++++++++++++++++++++++++++++  ",
"  ++++++++++++++++++++++++++++++++++++++++++++++++++++++++++++  ",
"  ++    ++++  ++++++++++++++++++++++++++++++++++++  ++++    ++..",
"  ++    ++++  ++++++++++++++++++++++++++++++++++++  ++++    ++..",
"  ++    ++++    ++++++++++++++++++++++++++++++++    ++++    ++..",
"  ++    ++++    ++++++++++++++++++++++++++++++++    ++++    ++..",
"  ++++++++++++++    ....  ....    ..    ......  ++++++++++++++  ",
"  ++++++++++++++    ....  ....    ..    ......  ++++++++++++++  ",
"..++++++++++++  @@@@@@@@@@@@@@@@@@@@@@@@@@@@@@@@..++++++++++++  ",
"..++++++++++++  @@@@@@@@@@@@@@@@@@@@@@@@@@@@@@@@..++++++++++++  ",
"..++    ++++++..@@@@@@@@@@@@@@@@@@@@@@@@@@@@@@@@..++++++    ++  ",
"..++    ++++++..@@@@@@@@@@@@@@@@@@@@@@@@@@@@@@@@..++++++    ++  ",
"  ++++  ++++  @@@@@@@@@@@@@@@@@@@@@@@@@@@@@@@@@@@@  ++++  ++++  ",
"  ++++  ++++  @@@@@@@@@@@@@@@@@@@@@@@@@@@@@@@@@@@@  ++++  ++++  ",
"  ++++++++++  @@@@@@@@@@@@@@@@@@@@@@@@@@@@@@@@@@@@..++++++++++  ",
"  ++++++++++  @@@@@@@@@@@@@@@@@@@@@@@@@@@@@@@@@@@@..++++++++++  ",
"  ++++++++++..@@@@@@@@@@@@@@@@@@@@@@@@@@@@@@@@@@@@  ++++++++++..",
"  ++++++++++..@@@@@@@@@@@@@@@@@@@@@@@@@@@@@@@@@@@@  ++++++++++..",
"..++++++++++  @@@@@@@@@@@@@@@@@@@@@@@@@@@@@@@@@@@@  ++++++++++..",
"..++++++++++  @@@@@@@@@@@@@@@@@@@@@@@@@@@@@@@@@@@@  ++++++++++..",
"  ++++++++++..@@@@@@@@@@@@@@@@@@@@@@@@@@@@@@@@@@@@  ++++++++++..",
"  ++++++++++..@@@@@@@@@@@@@@@@@@@@@@@@@@@@@@@@@@@@  ++++++++++..",
"  ++++++++++  @@@@@@@@@@@@@@@@@@@@@@@@@@@@@@@@@@@@  ++++++++++..",
"  ++++++++++  @@@@@@@@@@@@@@@@@@@@@@@@@@@@@@@@@@@@  ++++++++++..",
"  ++++++++++  @@@@@@@@@@@@@@@@@@@@@@@@@@@@@@@@@@@@  ++++++++++..",
"  ++++++++++  @@@@@@@@@@@@@@@@@@@@@@@@@@@@@@@@@@@@  ++++++++++..",
"  ++++++++++..@@@@@@@@@@@@@@@@@@@@@@@@@@@@@@@@@@@@  ++++++++++..",
"  ++++++++++..@@@@@@@@@@@@@@@@@@@@@@@@@@@@@@@@@@@@  ++++++++++..",
"  ++++++++++..@@@@@@@@@@@@@@@@@@@@@@@@@@@@@@@@@@@@..++++++++++..",
"  ++++++++++..@@@@@@@@@@@@@@@@@@@@@@@@@@@@@@@@@@@@..++++++++++..",
"..++++++++++  @@@@@@@@@@@@@@@@@@@@@@@@@@@@@@@@@@@@  ++++++++++..",
"..++++++++++  @@@@@@@@@@@@@@@@@@@@@@@@@@@@@@@@@@@@  ++++++++++..",
"..++++++++++  @@@@@@@@@@@@@@@@@@@@@@@@@@@@@@@@@@@@..++++++++++..",
"..++++++++++  @@@@@@@@@@@@@@@@@@@@@@@@@@@@@@@@@@@@..++++++++++..",
"  ++++++++++  @@@@@@@@@@@@@@@@@@@@@@@@@@@@@@@@@@@@..++++++++++  ",
"  ++++++++++  @@@@@@@@@@@@@@@@@@@@@@@@@@@@@@@@@@@@..++++++++++  ",
"  ++++++++++..@@@@@@@@@@@@@@@@@@@@@@@@@@@@@@@@@@@@..++++++++++  ",
"  ++++++++++..@@@@@@@@@@@@@@@@@@@@@@@@@@@@@@@@@@@@..++++++++++  ",
"  ++++++++++..@@@@@@@@@@@@@@@@@@@@@@@@@@@@@@@@@@@@  ++++++++++  ",
"  ++++++++++..@@@@@@@@@@@@@@@@@@@@@@@@@@@@@@@@@@@@  ++++++++++  ",
"..++++++++++..@@@@@@@@@@@@@@@@@@@@@@@@@@@@@@@@@@@@  ++++++++++  ",
"..++++++++++..@@@@@@@@@@@@@@@@@@@@@@@@@@@@@@@@@@@@  ++++++++++  ",
"  ++++++++++  @@@@@@@@@@@@@@@@@@@@@@@@@@@@@@@@@@@@  ++++++++++  ",
"  ++++++++++  @@@@@@@@@@@@@@@@@@@@@@@@@@@@@@@@@@@@  ++++++++++  ",
"..++++++++++  @@@@@@@@@@@@@@@@@@@@@@@@@@@@@@@@@@@@..++++++++++..",
"..++++++++++  @@@@@@@@@@@@@@@@@@@@@@@@@@@@@@@@@@@@..++++++++++..",
"  ++++  ++++  ####################################  ++++  ++++..",
"  ++++  ++++  ####################################  ++++  ++++..",
"..++    ++++  ##$$##$$##$$##$$####$$##$$##$$##$$##..++++    ++..",
"..++    ++++  ##$$##$$##$$##$$####$$##$$##$$##$$##..++++    ++..",
"  ++++++++++..$$##$$##$$##$$##$$$$##$$##$$##$$##$$..++++++++++..",
"  ++++++++++..$$##$$##$$##$$##$$$$##$$##$$##$$##$$..++++++++++..",
"..++++++++++..$$$$$$$$$$$$$$$$$$$$$$$$$$$$$$$$$$$$..++++++++++..",
"..++++++++++..$$$$$$$$$$$$$$$$$$$$$$$$$$$$$$$$$$$$..++++++++++..",
"  ++    ++++..$$%%$$%%$$%%$$%%$$$$%%$$%%$$%%$$%%$$  ++++    ++  ",
"  ++    ++++..$$%%$$%%$$%%$$%%$$$$%%$$%%$$%%$$%%$$  ++++    ++  ",
"  ++    ++++  %%$$%%$$%%$$%%$$&&&&$$%%$$%%$$%%$$%%  ++++    ++  ",
"  ++    ++++  %%$$%%$$%%$$%%$$&&&&$$%%$$%%$$%%$$%%  ++++    ++  ",
"  ++++++++++  %%&&%%&&%%&&%%&&%%%%&&%%&&%%&&%%&&%%  ++++++++++  ",
"  ++++++++++  %%&&%%&&%%&&%%&&%%%%&&%%&&%%&&%%&&%%  ++++++++++  ",
"              ************************************              ",
"              ************************************              "};
