/* XPM */
static char * Luka_left_xpm[] = {
"64 64 14 1",
" 	c #9BABB2",
".	c #000000",
"+	c #625565",
"@	c #2E222F",
"#	c #3E3546",
"$	c #F57D4A",
"%	c #EA4F36",
"&	c #FAA987",
"*	c #FCA790",
"=	c #FFFFFF",
"-	c #59381E",
";	c #FDCBB0",
">	c #694F62",
",	c #966C6C",
"                      ..................++++++++++++++++++++++++",
"                      ..................++++++++++++++++++++++++",
"                    ..@@@@@@@@@@@@@@@@##....++++++++++++++++++++",
"                    ..@@@@@@@@@@@@@@@@##....++++++++++++++++++++",
"                ....$$##@@@@@@@@@@@@@@##$$$$..++++++++++++++++++",
"                ....$$##@@@@@@@@@@@@@@##$$$$..++++++++++++++++++",
"              ....%%$$$$##$$##@@@@####$$$$$$%%....++++++++++++++",
"              ....%%$$$$##$$##@@@@####$$$$$$%%....++++++++++++++",
"            ....&&..$$$$$$$$$$$$##$$$$$$$$..&&%%....++++++++++++",
"            ....&&..$$$$$$$$$$$$##$$$$$$$$..&&%%....++++++++++++",
"          ..........&&$$$$$$$$$$$$$$$$$$$$&&..$$%%%%..++++++++++",
"          ..........&&$$$$$$$$$$$$$$$$$$$$&&..$$%%%%..++++++++++",
"          ..$$$$..$$$$&&&&..&&&&&&&&....&&$$$$........++++++++++",
"          ..$$$$..$$$$&&&&..&&&&&&&&....&&$$$$........++++++++++",
"        ..%%$$..$$$$$$$$..**..%%$$..****..%%$$....++++++++++++++",
"        ..%%$$..$$$$$$$$..**..%%$$..****..%%$$....++++++++++++++",
"        ......$$..$$%%..****....%%..******..%%$$..++++++++++++++",
"        ......$$..$$%%..****....%%..******..%%$$..++++++++++++++",
"            ....$$%%......**..%%........****..$$..++++++++++++++",
"            ....$$%%......**..%%........****..$$..++++++++++++++",
"          ..%%$$$$..**==--........--==**........$$..++++++++++++",
"          ..%%$$$$..**==--........--==**........$$..++++++++++++",
"          ....$$....==----..;;;;..----==..;;;;..%%..++++++++++++",
"          ....$$....==----..;;;;..----==..;;;;..%%..++++++++++++",
"        ..%%$$....;;......;;;;;;;;......;;;;**....++++++++++++++",
"        ..%%$$....;;......;;;;;;;;......;;;;**....++++++++++++++",
"      ..%%%%..$$$$..**;;;;;;;;;;;;;;;;;;;;**..%%..++++++++++++++",
"      ..%%%%..$$$$..**;;;;;;;;;;;;;;;;;;;;**..%%..++++++++++++++",
"        ..........$$..**;;........;;;;;;**....$$%%..++++++++++++",
"        ..........$$..**;;........;;;;;;**....$$%%..++++++++++++",
"              ..%%..%%..;;;;;;;;;;;;;;;;..%%%%....++++++++++++++",
"              ..%%..%%..;;;;;;;;;;;;;;;;..%%%%....++++++++++++++",
"++++++++++++++....++........................                    ",
"++++++++++++++....++........................                    ",
"++++++++++++++++++++..######..>>>>..######..                    ",
"++++++++++++++++++++..######..>>>>..######..                    ",
"++++++++++++++++++....++++++..,,,,..++++..;;..                  ",
"++++++++++++++++++....++++++..,,,,..++++..;;..                  ",
"++++++++++++++++++....++++++..,,,,..++++..;;..                  ",
"++++++++++++++++++....++++++..,,,,..++++..;;..                  ",
"++++++++++++++++++....++++++..,,,,..++++..;;..                  ",
"++++++++++++++++++....++++++..,,,,..++++..;;..                  ",
"++++++++++++++++++....##++++..,,,,..##++..;;..                  ",
"++++++++++++++++++....##++++..,,,,..##++..;;..                  ",
"++++++++++++++++++....##++++..,,,,..##++..;;..                  ",
"++++++++++++++++++....##++++..,,,,..##++..;;..                  ",
"++++++++++++++++++....++++++..,,,,..++++..**..                  ",
"++++++++++++++++++....++++++..,,,,..++++..**..                  ",
"++++++++++++++++++..........,,,,,,,,......**..                  ",
"++++++++++++++++++..........,,,,,,,,......**..                  ",
"++++++++++++++++++....@@##@@##@@##@@##@@......                  ",
"++++++++++++++++++....@@##@@##@@##@@##@@......                  ",
"++++++++++++++++++++..@@##@@##@@##@@##@@##..                    ",
"++++++++++++++++++++..@@##@@##@@##@@##@@##..                    ",
"++++++++++++++++++++........................                    ",
"++++++++++++++++++++........................                    ",
"++++++++++++++++++++++..****..++  ..****..                      ",
"++++++++++++++++++++++..****..++  ..****..                      ",
"++++++++++++++++++++++..****..++  ..****..                      ",
"++++++++++++++++++++++..****..++  ..****..                      ",
"++++++++++++++++++++++..    ..++  ..    ..                      ",
"++++++++++++++++++++++..    ..++  ..    ..                      ",
"++++++++++++++++++++++........++  ........                      ",
"++++++++++++++++++++++........++  ........                      "};
