/* XPM */
static char * Luka_back_xpm[] = {
"64 64 10 1",
" 	c #9BABB2",
".	c #000000",
"+	c #625565",
"@	c #3E3546",
"#	c #2E222F",
"$	c #F57D4A",
"%	c #EA4F36",
"&	c #FAA987",
"*	c #FDCBB0",
"=	c #FCA790",
"                      ..................++++++++++++++++++++++++",
"                      ..................++++++++++++++++++++++++",
"                  ....@@################..++++++++++++++++++++++",
"                  ....@@################..++++++++++++++++++++++",
"                ..$$$$@@##############@@$$....++++++++++++++++++",
"                ..$$$$@@##############@@$$....++++++++++++++++++",
"            ....%%$$$$$$@@@@####@@$$@@$$$$$$....++++++++++++++++",
"            ....%%$$$$$$@@@@####@@$$@@$$$$$$....++++++++++++++++",
"          ....&&$$$$$$$$$$$$@@$$$$$$$$$$$$$$&&....++++++++++++++",
"          ....&&$$$$$$$$$$$$@@$$$$$$$$$$$$$$&&....++++++++++++++",
"        ..%%%%$$&&....$$$$$$$$$$$$$$$$$$$$&&%%......++++++++++++",
"        ..%%%%$$&&....$$$$$$$$$$$$$$$$$$$$&&%%......++++++++++++",
"        ..........&&&&&&$$&&&&$$&&&&&&&&$$..$$%%%%..++++++++++++",
"        ..........&&&&&&$$&&&&$$&&&&&&&&$$..$$%%%%..++++++++++++",
"            ....$$$$$$$$$$$$$$$$$$$$$$$$$$$$..$$%%%%..++++++++++",
"            ....$$$$$$$$$$$$$$$$$$$$$$$$$$$$..$$%%%%..++++++++++",
"            ..$$$$$$$$$$$$$$$$..$$..$$..$$$$$$........++++++++++",
"            ..$$$$$$$$$$$$$$$$..$$..$$..$$$$$$........++++++++++",
"            ..$$%%..$$..$$..$$..%%..$$$$....%%%%..++++++++++++++",
"            ..$$%%..$$..$$..$$..%%..$$$$....%%%%..++++++++++++++",
"          ..%%%%..$$..$$$$..$$$$..%%..$$$$$$..%%%%..++++++++++++",
"          ..%%%%..$$..$$$$..$$$$..%%..$$$$$$..%%%%..++++++++++++",
"          ..%%..$$$$..%%..$$$$$$$$....$$$$$$$$......++++++++++++",
"          ..%%..$$$$..%%..$$$$$$$$....$$$$$$$$......++++++++++++",
"            ..$$%%%%..%%..$$$$$$$$$$$$$$$$$$..$$%%%%..++++++++++",
"            ..$$%%%%..%%..$$$$$$$$$$$$$$$$$$..$$%%%%..++++++++++",
"            ..%%%%..%%..$$$$..$$$$$$$$$$..$$$$..$$%%%%..++++++++",
"            ..%%%%..%%..$$$$..$$$$$$$$$$..$$$$..$$%%%%..++++++++",
"          ..%%%%......$$$$..%%..$$$$$$..%%..$$........++++++++++",
"          ..%%%%......$$$$..%%..$$$$$$..%%..$$........++++++++++",
"            ....%%$$$$$$$$..$$..$$$$..%%$$%%....++++++++++++++++",
"            ....%%$$$$$$$$..$$..$$$$..%%$$%%....++++++++++++++++",
"++++++++++++++++..%%%%..%%%%%%%%%%%%%%$$$$$$..                  ",
"++++++++++++++++..%%%%..%%%%%%%%%%%%%%$$$$$$..                  ",
"++++++++++++++++++....@@......%%....%%....%%..                  ",
"++++++++++++++++++....@@......%%....%%....%%..                  ",
"++++++++++++++++..**..++++++....++++..++++..**..                ",
"++++++++++++++++..**..++++++....++++..++++..**..                ",
"++++++++++++++++..**..++++++++++++++++++++..**..                ",
"++++++++++++++++..**..++++++++++++++++++++..**..                ",
"++++++++++++++++..**..++++++++++++++++++++..**..                ",
"++++++++++++++++..**..++++++++++++++++++++..**..                ",
"++++++++++++++++..**..++++++++++++++++++++..**..                ",
"++++++++++++++++..**..++++++++++++++++++++..**..                ",
"++++++++++++++++..**..++++++++++++++++++++..**..                ",
"++++++++++++++++..**..++++++++++++++++++++..**..                ",
"++++++++++++++++..==..++++++++++++++++++++..==..                ",
"++++++++++++++++..==..++++++++++++++++++++..==..                ",
"++++++++++++++++..==........................==..                ",
"++++++++++++++++..==........................==..                ",
"++++++++++++++++......@@##@@##@@##@@##@@##......                ",
"++++++++++++++++......@@##@@##@@##@@##@@##......                ",
"++++++++++++++++++++..@@##@@##@@##@@##@@##..                    ",
"++++++++++++++++++++..@@##@@##@@##@@##@@##..                    ",
"++++++++++++++++++++........................                    ",
"++++++++++++++++++++........................                    ",
"++++++++++++++++++++++..====..++  ..====..                      ",
"++++++++++++++++++++++..====..++  ..====..                      ",
"++++++++++++++++++++++..====..++  ..====..                      ",
"++++++++++++++++++++++..====..++  ..====..                      ",
"++++++++++++++++++++++..    ..++  ..    ..                      ",
"++++++++++++++++++++++..    ..++  ..    ..                      ",
"++++++++++++++++++++++........++  ........                      ",
"++++++++++++++++++++++........++  ........                      "};
