/* XPM */
static char * wall_front_xpm[] = {
"32 32 3 1",
" 	c #7C868A",
".	c #9BABB2",
"+	c #C7DCD0",
"            .... .... ......... ",
" ++++++++++++++++++++++++++++++ ",
" +  ++ ++++++++++++++++++ ++  +.",
" +  ++  ++++++++++++++++  ++  +.",
" ++++++++++++++++++++++++++++++ ",
".++++++++++++++++++++++++++++++ ",
".+  ++++++++++++++++++++++++  + ",
" ++ ++++++++++++++++++++++++ ++ ",
" ++++++++++++++++++++++++++++++ ",
" ++++++++++++++++++++++++++++++.",
".++++++++++++++++++++++++++++++.",
" ++++++++++++++++++++++++++++++.",
" ++++++++++++++++++++++++++++++.",
" ++++++++++++++++++++++++++++++.",
" ++++++++++++++++++++++++++++++.",
" ++++++++++++++++++++++++++++++.",
".++++++++++++++++++++++++++++++.",
".++++++++++++++++++++++++++++++.",
" ++++++++++++++++++++++++++++++ ",
" ++++++++++++++++++++++++++++++ ",
" ++++++++++++++++++++++++++++++ ",
".++++++++++++++++++++++++++++++ ",
" ++++++++++++++++++++++++++++++ ",
".++++++++++++++++++++++++++++++.",
" ++ ++++++++++++++++++++++++ ++.",
".+  ++++++++++++++++++++++++  +.",
" ++++++++++++++++++++++++++++++.",
".++++++++++++++++++++++++++++++.",
" +  ++  ++++++++++++++++  ++  + ",
" +  ++ ++++++++++++++++++ ++  + ",
" ++++++++++++++++++++++++++++++ ",
"      ... .         . ..        "};
